# File created by Blade
# Date/Time:  Wed Jan 21 19:09:01 2015
#---------------------------------------------------------
:version 1.10
:name HOM
:units
  mass 1.0
  length 1.000000
  angle deg
:documentation
     Acclaim Skeleton File
:root
   axis xyz
   order TX TY TZ RX RY RZ
   position 0.000000 0.000000 0.000000
   orientation 0 0 0
:bonedata
   begin
      id 1
      name RightUpLeg_dum
      direction -1.000000 0.000000 0.000000
      length 3.693983
      axis 0.0 0.0 0.0 xyz
   end
   begin
      id 2
      name LeftUpLeg_dum
      direction 1.000000 0.000000 0.000000
      length 3.693983
      axis 0.0 0.0 0.0 xyz
   end
   begin
      id 3
      name Spine_dum
      direction 0.000000 1.000000 0.000000
      length 2.392956
      axis 0.0 0.0 0.0 xyz
   end
   begin
      id 4
      name RightUpLeg
      direction 0.000000 -1.000000 0.000000
      length 15.795667
      axis 0.0 0.0 0.0 xyz
      dof rx ry rz
   end
   begin
      id 5
      name RightLeg
      direction 0.000000 -1.000000 0.000000
      length 14.766989
      axis 0.0 0.0 0.0 xyz
      dof rx ry rz
   end
   begin
      id 6
      name RightFoot
      direction 0.000000 -0.258819 0.965926
      length 4.962790
      axis 15.0 0.0 0.0 xyz
      dof rx ry rz
   end
   begin
      id 7
      name RightToeBase
      direction 0.000000 0.000000 1.000000
      length 2.952750
      axis 0.0 0.0 0.0 xyz
      dof rx ry rz
   end
   begin
      id 8
      name LeftUpLeg
      direction 0.000000 -1.000000 0.000000
      length 15.795667
      axis 0.0 0.0 0.0 xyz
      dof rx ry rz
   end
   begin
      id 9
      name LeftLeg
      direction 0.000000 -1.000000 0.000000
      length 14.766989
      axis 0.0 0.0 0.0 xyz
      dof rx ry rz
   end
   begin
      id 10
      name LeftFoot
      direction 0.000000 -0.258819 0.965926
      length 4.962790
      axis 15.0 0.0 0.0 xyz
      dof rx ry rz
   end
   begin
      id 11
      name LeftToeBase
      direction 0.000000 0.000000 1.000000
      length 2.952750
      axis 0.0 0.0 0.0 xyz
      dof rx ry rz
   end
   begin
      id 12
      name Spine
      direction 0.000000 1.000000 0.000000
      length 0.000000
      axis 0.0 0.0 0.0 xyz
      dof rx ry rz
   end
   begin
      id 13
      name Spine_dum1
      direction 0.000000 1.000000 0.000000
      length 13.207411
      axis 0.0 0.0 0.0 xyz
   end
   begin
      id 14
      name Spine_dum2
      direction 0.000000 1.000000 0.000000
      length 13.207411
      axis 0.0 0.0 0.0 xyz
   end
   begin
      id 15
      name Spine_dum3
      direction 0.000000 1.000000 0.000000
      length 19.250100
      axis 0.0 0.0 0.0 xyz
   end
   begin
      id 16
      name RightShoulder
      direction -1.000000 0.000000 0.000000
      length 8.140465
      axis 0.0 0.0 90.0 xyz
      dof rx ry rz
   end
   begin
      id 17
      name RightArm
      direction -1.000000 0.000000 0.000000
      length 10.649840
      axis 0.0 0.0 90.0 xyz
      dof rx ry rz
   end
   begin
      id 18
      name RightForeArm
      direction -1.000000 0.000000 0.000000
      length 8.304624
      axis 0.0 0.0 90.0 xyz
      dof ry rz rx
   end
   begin
      id 19
      name RightHand
      direction -1.000000 0.000000 0.000000
      length 0.000000
      axis 0.0 0.0 90.0 xyz
      dof rx ry rz
   end
   begin
      id 20
      name RightHand_dum1
      direction -1.000000 0.000000 0.000000
      length 3.937000
      axis 0.0 0.0 90.0 xyz
   end
   begin
      id 21
      name RightHand_dum2
      direction 0.000000 0.000000 0.000000
      length 0.000000
      axis 0.0 0.0 90.0 xyz
   end
   begin
      id 22
      name RightHandThumb1
      direction 0.000000 0.000000 1.000000
      length 3.937000
      axis 0.0 0.0 90.0 xyz
      dof rx rz ry
   end
   begin
      id 23
      name LeftShoulder
      direction 1.000000 0.000000 0.000000
      length 8.140465
      axis 0.0 0.0 -90.0 xyz
      dof rx ry rz
   end
   begin
      id 24
      name LeftArm
      direction 1.000000 0.000000 0.000000
      length 10.649840
      axis 0.0 0.0 -90.0 xyz
      dof rx ry rz
   end
   begin
      id 25
      name LeftForeArm
      direction 1.000000 0.000000 0.000000
      length 8.304624
      axis 0.0 0.0 -90.0 xyz
      dof ry rz rx
   end
   begin
      id 26
      name LeftHand
      direction 1.000000 0.000000 0.000000
      length 0.000000
      axis 0.0 0.0 -90.0 xyz
      dof rx ry rz
   end
   begin
      id 27
      name LeftHand_dum1
      direction 1.000000 0.000000 0.000000
      length 3.937000
      axis 0.0 0.0 -90.0 xyz
   end
   begin
      id 28
      name LeftHand_dum2
      direction 0.000000 0.000000 0.000000
      length 0.000000
      axis 0.0 0.0 -90.0 xyz
   end
   begin
      id 29
      name LeftHandThumb1
      direction 0.000000 0.000000 1.000000
      length 3.937000
      axis 0.0 0.0 -90.0 xyz
      dof rx rz ry
   end
   begin
      id 30
      name Head
      direction 0.000000 1.000000 0.000000
      length 4.527550
      axis 0.0 0.0 0.0 xyz
      dof rx ry rz
   end
:hierarchy
   begin
      root RightUpLeg_dum LeftUpLeg_dum Spine_dum
      RightUpLeg_dum RightUpLeg
      LeftUpLeg_dum LeftUpLeg
      Spine_dum Spine
      RightUpLeg RightLeg
      RightLeg RightFoot
      RightFoot RightToeBase
      LeftUpLeg LeftLeg
      LeftLeg LeftFoot
      LeftFoot LeftToeBase
      Spine Spine_dum1 Spine_dum2 Spine_dum3
      Spine_dum1 RightShoulder
      Spine_dum2 LeftShoulder
      Spine_dum3 Head
      RightShoulder RightArm
      RightArm RightForeArm
      RightForeArm RightHand
      RightHand RightHand_dum1 RightHand_dum2
      RightHand_dum2 RightHandThumb1
      LeftShoulder LeftArm
      LeftArm LeftForeArm
      LeftForeArm LeftHand
      LeftHand LeftHand_dum1 LeftHand_dum2
      LeftHand_dum2 LeftHandThumb1
   end

# File created by Blade
# Date/Time:  Wed Jan 21 19:08:52 2015
# Frame Rate: 120.000 fps
#------------------------------------------------------
:FULLY-SPECIFIED
:DEGREES
1840
root -1.779107 31.783427 -9.596422 51.485713 -22.075288 7.422394
RightUpLeg -45.318675 6.042352 6.315030
RightLeg -6.540654 -0.000000 0.000000
RightFoot -5.162631 7.756739 8.103150
RightToeBase 18.225218 -0.000000 -0.000000
LeftUpLeg -59.192518 -11.119989 -7.043142
LeftLeg 3.108206 -0.000000 -0.000000
LeftFoot -7.076176 10.826644 -3.651800
LeftToeBase 7.857650 -0.000000 -0.000000
Spine -36.928859 -26.504466 -26.594465
RightShoulder -27.676458 23.297112 -80.034395
RightArm 0.640676 -10.254169 -1.227130
RightForeArm 56.672806 -0.000000 -1.641540
RightHand 19.078860 -0.000000 9.741359
RightHandThumb1 -24.326973 -0.000000 -32.862282
LeftShoulder -7.746710 6.192664 1.571640
LeftArm 17.468519 23.852123 -70.297829
LeftForeArm 9.532278 0.000000 -4.649643
LeftHand -13.469277 0.000000 0.527412
LeftHandThumb1 -26.253704 0.000000 33.147579
Head -18.829194 12.633913 -44.482937
1841
root -1.771123 31.782310 -9.598062 51.491794 -21.908403 7.393225
RightUpLeg -45.324383 6.034425 6.346051
RightLeg -6.534545 -0.000000 0.000000
RightFoot -5.208243 7.681398 8.112262
RightToeBase 18.171715 -0.000000 -0.000000
LeftUpLeg -59.201245 -11.127693 -7.030177
LeftLeg 3.150761 -0.000000 -0.000000
LeftFoot -7.086341 10.651423 -3.653870
LeftToeBase 7.900471 -0.000000 -0.000000
Spine -36.935571 -26.489433 -26.592265
RightShoulder -27.631868 23.289867 -80.064266
RightArm 0.681549 -10.341510 -1.169203
RightForeArm 56.124507 0.000000 -1.543764
RightHand 19.016238 0.000000 9.496544
RightHandThumb1 -24.326973 -0.000000 -32.862282
LeftShoulder -7.711667 6.210309 1.576839
LeftArm 17.523975 23.905971 -70.244872
LeftForeArm 9.631280 -0.000000 -4.616661
LeftHand -13.431262 -0.000000 0.461961
LeftHandThumb1 -26.253704 0.000000 33.147579
Head -18.488289 12.623108 -44.425446
1842
root -1.764685 31.782004 -9.599824 51.504237 -21.741225 7.369661
RightUpLeg -45.332263 6.027271 6.372635
RightLeg -6.540837 -0.000000 0.000000
RightFoot -5.230705 7.592314 8.161535
RightToeBase 18.166531 -0.000000 -0.000000
LeftUpLeg -59.218418 -11.134976 -7.026482
LeftLeg 3.199326 -0.000000 -0.000000
LeftFoot -7.074502 10.509082 -3.588381
LeftToeBase 7.926442 -0.000000 -0.000000
Spine -36.933503 -26.480389 -26.606064
RightShoulder -27.604878 23.188118 -80.049372
RightArm 0.743007 -10.294431 -1.086863
RightForeArm 55.523481 -0.000000 -1.427532
RightHand 18.995469 -0.000000 9.289640
RightHandThumb1 -24.326973 -0.000000 -32.862282
LeftShoulder -7.744039 6.204587 1.557617
LeftArm 17.668548 24.103532 -70.123615
LeftForeArm 9.679672 -0.000000 -4.677979
LeftHand -13.396545 -0.000000 0.428963
LeftHandThumb1 -26.253704 0.000000 33.147579
Head -18.163908 12.625066 -44.361014
1843
root -1.759353 31.781481 -9.600818 51.516865 -21.593885 7.346638
RightUpLeg -45.337382 6.031173 6.390921
RightLeg -6.550389 -0.000000 0.000000
RightFoot -5.251040 7.485304 8.171163
RightToeBase 18.100043 -0.000000 -0.000000
LeftUpLeg -59.230621 -11.169494 -6.975906
LeftLeg 3.222120 -0.000000 -0.000000
LeftFoot -7.085378 10.418318 -3.580820
LeftToeBase 7.963300 -0.000000 -0.000000
Spine -36.943246 -26.473651 -26.630348
RightShoulder -27.577381 23.189583 -80.064275
RightArm 0.776435 -10.280508 -1.005721
RightForeArm 54.692870 -0.000000 -1.251741
RightHand 18.972468 -0.000000 8.996738
RightHandThumb1 -24.326973 -0.000000 -32.862282
LeftShoulder -7.751924 6.220221 1.561515
LeftArm 17.747937 24.219864 -70.054245
LeftForeArm 9.659215 -0.000000 -4.671803
LeftHand -13.365298 0.000000 0.490375
LeftHandThumb1 -26.253704 0.000000 33.147579
Head -17.859095 12.644048 -44.294610
1844
root -1.754512 31.781202 -9.602227 51.530259 -21.458668 7.339243
RightUpLeg -45.358832 6.044325 6.380453
RightLeg -6.548558 -0.000000 0.000000
RightFoot -5.312496 7.374169 8.179147
RightToeBase 18.156324 -0.000000 -0.000000
LeftUpLeg -59.243664 -11.199690 -6.961121
LeftLeg 3.240579 -0.000000 -0.000000
LeftFoot -7.064376 10.338239 -3.586884
LeftToeBase 7.970626 -0.000000 -0.000000
Spine -36.956598 -26.484823 -26.674597
RightShoulder -27.538201 23.144762 -80.049054
RightArm 0.791886 -10.212044 -0.899318
RightForeArm 53.684149 -0.000000 -1.023239
RightHand 18.992531 -0.000000 8.502587
RightHandThumb1 -24.326973 -0.000000 -32.862282
LeftShoulder -7.791162 6.251754 1.555188
LeftArm 17.870956 24.315245 -69.966342
LeftForeArm 9.668668 -0.000000 -4.683781
LeftHand -13.420671 -0.000000 0.533541
LeftHandThumb1 -26.253704 0.000000 33.147579
Head -17.568143 12.669565 -44.226041
1845
root -1.750700 31.780082 -9.605458 51.549465 -21.322884 7.310756
RightUpLeg -45.383693 6.059899 6.406181
RightLeg -6.530408 -0.000000 0.000000
RightFoot -5.338375 7.258705 8.101969
RightToeBase 18.046821 -0.000000 -0.000000
LeftUpLeg -59.259243 -11.191536 -6.959383
LeftLeg 3.268604 -0.000000 -0.000000
LeftFoot -7.056667 10.201330 -3.569078
LeftToeBase 7.936436 -0.000000 -0.000000
Spine -36.966556 -26.477905 -26.705682
RightShoulder -27.493568 23.123021 -80.034974
RightArm 0.786384 -10.207743 -0.811123
RightForeArm 52.520147 -0.000000 -0.782911
RightHand 19.022003 -0.000000 7.839107
RightHandThumb1 -24.326973 -0.000000 -32.862282
LeftShoulder -7.787060 6.209050 1.561867
LeftArm 17.859775 24.325417 -69.957127
LeftForeArm 9.676182 -0.000000 -4.667914
LeftHand -13.465044 0.000000 0.651253
LeftHandThumb1 -26.253704 0.000000 33.147579
Head -17.295949 12.687127 -44.187145
1846
root -1.747365 31.778142 -9.607558 51.576107 -21.200803 7.293096
RightUpLeg -45.415741 6.070819 6.421750
RightLeg -6.517884 -0.000000 0.000000
RightFoot -5.394597 7.168795 8.204200
RightToeBase 18.130084 -0.000000 -0.000000
LeftUpLeg -59.274877 -11.190348 -6.964879
LeftLeg 3.275399 -0.000000 -0.000000
LeftFoot -7.049404 10.091983 -3.512112
LeftToeBase 7.963325 -0.000000 -0.000000
Spine -36.983030 -26.456640 -26.772674
RightShoulder -27.443280 23.139342 -80.030656
RightArm 0.759110 -10.214708 -0.739136
RightForeArm 51.275223 -0.000000 -0.540380
RightHand 18.973925 -0.000000 7.267869
RightHandThumb1 -24.326973 -0.000000 -32.862282
LeftShoulder -7.800495 6.153076 1.565934
LeftArm 17.900688 24.479791 -69.898775
LeftForeArm 9.531939 -0.000000 -4.724487
LeftHand -13.423242 -0.000000 0.748934
LeftHandThumb1 -26.253704 0.000000 33.147579
Head -17.006386 12.720691 -44.123993
1847
root -1.744837 31.776199 -9.609741 51.599587 -21.086156 7.278794
RightUpLeg -45.445217 6.069947 6.445265
RightLeg -6.504443 -0.000000 0.000000
RightFoot -5.440219 7.088694 8.214186
RightToeBase 18.126485 -0.000000 -0.000000
LeftUpLeg -59.291198 -11.190361 -6.968524
LeftLeg 3.285079 -0.000000 -0.000000
LeftFoot -7.041468 9.966690 -3.535302
LeftToeBase 7.895758 -0.000000 -0.000000
Spine -36.999643 -26.449756 -26.830560
RightShoulder -27.431605 23.161605 -80.065943
RightArm 0.766756 -10.219912 -0.612828
RightForeArm 49.961072 -0.000000 -0.301859
RightHand 18.985074 -0.000000 6.721909
RightHandThumb1 -24.326973 -0.000000 -32.862282
LeftShoulder -7.809905 6.227459 1.542914
LeftArm 18.009416 24.438719 -69.828693
LeftForeArm 9.569287 -0.000000 -4.729109
LeftHand -13.433842 -0.000000 0.831782
LeftHandThumb1 -26.253704 0.000000 33.147579
Head -16.759852 12.773252 -44.079343
1848
root -1.741288 31.774075 -9.613338 51.638148 -20.957255 7.276210
RightUpLeg -45.491923 6.054901 6.469226
RightLeg -6.500743 -0.000000 0.000000
RightFoot -5.480095 7.013071 8.185679
RightToeBase 18.074758 -0.000000 -0.000000
LeftUpLeg -59.333216 -11.196747 -6.984966
LeftLeg 3.311997 -0.000000 -0.000000
LeftFoot -7.040359 9.830418 -3.514924
LeftToeBase 7.937506 -0.000000 -0.000000
Spine -37.007258 -26.439601 -26.902120
RightShoulder -27.432207 23.067327 -80.037921
RightArm 0.854281 -10.296373 -0.520321
RightForeArm 48.898811 -0.000000 -0.225106
RightHand 18.974543 0.000000 6.379041
RightHandThumb1 -24.326973 -0.000000 -32.862282
LeftShoulder -7.796036 6.222171 1.523348
LeftArm 18.064370 24.493310 -69.767707
LeftForeArm 9.527950 -0.000000 -4.751660
LeftHand -13.521266 -0.000000 0.943952
LeftHandThumb1 -26.253704 0.000000 33.147579
Head -16.522293 12.748399 -44.041996
